<mxfile host="app.diagrams.net" modified="2022-03-27T05:13:03.576Z" agent="5.0 (Windows NT 10.0; Win64; x64) AppleWebKit/537.36 (KHTML, like Gecko) Chrome/99.0.4844.83 Safari/537.36" etag="OEy-LTi18DPkrlceQIm4" version="17.2.4" type="github">
  <diagram id="dFXeZK2u9CAr6GDMYxFr" name="Page-1">
    <mxGraphModel dx="1102" dy="596" grid="1" gridSize="10" guides="1" tooltips="1" connect="1" arrows="1" fold="1" page="1" pageScale="1" pageWidth="850" pageHeight="1100" math="0" shadow="0">
      <root>
        <mxCell id="0" />
        <mxCell id="1" parent="0" />
      </root>
    </mxGraphModel>
  </diagram>
</mxfile>
